<?xml version="1.0" encoding="utf-8"?>
<!-- Generator: Adobe Illustrator 22.1.0, SVG Export Plug-In . SVG Version: 6.00 Build 0)  -->
<svg version="1.1" id="Warstwa_1" xmlns="http://www.w3.org/2000/svg" xmlns:xlink="http://www.w3.org/1999/xlink" x="0px" y="0px"
	 viewBox="0 0 60 60" style="enable-background:new 0 0 60 60;" xml:space="preserve">
<style type="text/css">
	.st0{fill:#FFFFFF;}
	.st1{fill:none;stroke:#232323;stroke-width:2;stroke-linecap:round;stroke-linejoin:round;stroke-miterlimit:10;}
</style>
<circle class="st0" cx="30" cy="30" r="30"/>
<polygon class="st1" points="24.9,36.4 21.1,38.2 12.1,18.9 15.9,17.1 "/>
<polyline class="st1" points="36.6,27.3 26.9,44.9 46.5,44.9 40.6,20.8 "/>
<path class="st1" d="M40.6,20.8c0,2.8-1.6,5.3-3.9,6.5c-1.1,0.6-2.3,0.9-3.5,0.9c-4.1,0-7.4-3.3-7.4-7.4s3.3-7.4,7.4-7.4
	S40.6,16.7,40.6,20.8z"/>
<line class="st1" x1="39.4" y1="16.9" x2="24.3" y2="23.4"/>
<path class="st1" d="M34.4,44.9H13.5c0,0-2-5.2-2-5.6c0-3.8,3.2-6.4,7-6.7"/>
</svg>
