<?xml version="1.0" ?><!DOCTYPE svg  PUBLIC '-//W3C//DTD SVG 1.1//EN'  'http://www.w3.org/Graphics/SVG/1.1/DTD/svg11.dtd'><svg height="96" version="1.1" viewBox="0 0 96 96" width="96" xmlns="http://www.w3.org/2000/svg" xmlns:xlink="http://www.w3.org/1999/xlink"><path d="M92 47.992c0 5.524-1.008 10.9-3 16h-17v-52.884c12.416 8.092 20 21.932 20 36.884zM28 63.992v-22.912l20.14-18.116 19.864 19.86v21.172h-40.004zM68 8.796v28.368l-2.5-2.504-29.084-29.080c10.66-2.944 21.992-1.688 31.584 3.216zM32.168 6.984l13.14 13.14-20.256 18.228c-0.244 0.14-0.456 0.336-0.624 0.564l-19.564 17.608c-0.576-2.856-0.864-5.72-0.864-8.532 0-18.16 11.268-34.484 28.168-41.008zM5.98 60.908l18.020-16.224v40.184c-8.564-5.604-15-14.14-18.020-23.96zM48 91.992c-6.952 0-13.84-1.656-20-4.8v-19.2h59.204c-7.484 14.676-22.556 24-39.204 24z" fill="#000000"/></svg>